<?xml version="1.0" encoding="utf-8"?>
<svg xmlns="http://www.w3.org/2000/svg" viewBox="0 0 500 500">
  <g transform="matrix(0.925924, 0, 0, 0.925924, 280.495, -191.286)">
    <path d="M 23.443 254.52 L 158.876 254.52 L 158.876 476.59 L 23.443 476.59 L 23.443 254.52 Z" fill="#EBA824"/>
    <path d="M 23.443 450.193 L 158.876 450.193 L 158.876 468.653 L 23.443 468.653 L 23.443 450.193 Z" fill="#EACC53"/>
    <path d="M 48.409 319.581 L 59.834 319.581 L 59.834 455.895 L 48.409 455.895 L 48.409 319.581 Z M 85.78 319.581 L 97.205 319.581 L 97.205 455.895 L 85.78 455.895 L 85.78 319.581 Z M 122.27 319.581 L 133.694 319.581 L 133.694 455.895 L 122.27 455.895 L 122.27 319.581 Z" fill="#EACC53"/>
    <path d="M 191.759 295.399 L 158.896 295.399 L 158.896 305.961 L 178.904 305.961 C 186.155 305.961 192.093 311.899 192.093 319.15 L 192.093 412.371 C 192.093 419.622 186.155 425.56 178.904 425.56 L 158.896 425.56 L 158.896 436.123 L 191.759 436.123 C 199.01 436.123 204.948 430.185 204.948 422.934 L 204.948 308.588 C 204.948 301.337 199.01 295.399 191.759 295.399 Z" fill="#6E4921"/>
    <path d="M 13.194 227.575 C 13.194 227.575 -3.071 254.834 24.854 263.633 C 32.105 265.18 47.057 262.966 55.856 259.458 C 60.03 258.576 70.357 255.499 73.884 266.494 C 76.746 271.118 88.387 284.522 97.636 268.688 C 100.497 261.869 102.907 253.521 114.999 254.834 C 122.25 255.931 143.708 263.73 158.896 258.458 C 158.954 271.784 158.896 272.569 158.896 272.569 C 158.896 272.569 178.884 269.785 172.613 243.839 C 170.634 237.02 162.05 224.498 147.764 224.713 C 142.042 222.734 137.437 218.56 133.91 216.13 C 129.952 213.484 107.082 200.511 88.837 213.935 C 83.115 212.054 78.51 208.546 66.418 206.9 C 56.405 206.037 31.713 205.43 13.194 227.575 Z" fill="#F5ECDA"/>
    <path d="M 30.125 229.319 C 30.125 229.319 30.146 229.259 30.204 229.161 C 30.262 229.064 30.322 228.907 30.439 228.73 C 30.654 228.358 30.969 227.849 31.419 227.241 C 31.869 226.615 32.437 225.908 33.163 225.125 C 33.339 224.929 33.536 224.733 33.731 224.537 L 34.339 223.93 C 34.77 223.518 35.22 223.126 35.711 222.695 C 35.945 222.479 36.219 222.283 36.474 222.087 C 36.749 221.892 37.004 221.676 37.297 221.46 C 37.572 221.245 37.866 221.068 38.16 220.853 C 38.454 220.656 38.767 220.441 39.081 220.245 C 39.708 219.853 40.355 219.462 41.06 219.109 C 41.746 218.736 42.472 218.403 43.196 218.07 C 43.569 217.894 43.941 217.756 44.334 217.6 C 44.724 217.463 45.097 217.286 45.489 217.148 C 46.293 216.895 47.096 216.6 47.919 216.404 C 48.331 216.287 48.762 216.188 49.173 216.091 C 49.605 215.993 50.016 215.914 50.447 215.836 C 51.309 215.659 52.172 215.562 53.053 215.444 C 53.936 215.346 54.817 215.307 55.68 215.268 L 57.973 215.268 L 58.305 215.288 C 60.05 215.385 61.755 215.62 63.361 215.993 C 63.774 216.091 64.164 216.188 64.557 216.287 C 64.753 216.346 64.949 216.385 65.145 216.443 C 65.341 216.503 65.537 216.561 65.713 216.64 C 66.086 216.757 66.457 216.895 66.83 217.011 C 67.006 217.071 67.203 217.129 67.379 217.208 C 67.556 217.266 67.732 217.364 67.908 217.423 C 68.261 217.58 68.594 217.718 68.927 217.874 C 69.26 218.031 69.594 218.148 69.907 218.324 C 70.534 218.678 71.122 218.991 71.69 219.325 C 71.827 219.402 71.964 219.481 72.101 219.578 C 72.239 219.677 72.376 219.755 72.493 219.853 C 72.748 220.03 73.003 220.206 73.239 220.382 C 73.473 220.559 73.708 220.735 73.944 220.892 C 74.062 220.97 74.159 221.048 74.277 221.147 C 74.375 221.245 74.493 221.323 74.591 221.421 C 74.983 221.774 75.374 222.087 75.688 222.421 C 75.845 222.578 76.021 222.734 76.158 222.871 C 76.314 223.008 76.432 223.184 76.569 223.322 C 76.824 223.615 77.06 223.87 77.236 224.106 C 77.432 224.341 77.589 224.537 77.707 224.693 C 77.824 224.85 77.922 224.988 77.981 225.066 C 78.039 225.145 78.078 225.203 78.078 225.203 L 77.804 225.713 C 77.804 225.713 77.099 225.379 75.864 224.792 C 75.551 224.635 75.198 224.498 74.825 224.341 C 74.454 224.185 74.022 224.027 73.591 223.851 C 73.16 223.655 72.669 223.518 72.161 223.341 C 71.906 223.263 71.651 223.165 71.396 223.067 C 71.259 223.028 71.122 222.97 71.004 222.93 L 70.593 222.812 C 70.025 222.655 69.456 222.479 68.848 222.323 C 68.241 222.166 67.595 222.048 66.948 221.892 C 65.634 221.637 64.243 221.401 62.793 221.264 C 61.344 221.108 59.834 221.029 58.325 221.029 L 58.031 221.029 L 57.737 221.048 L 57.169 221.068 C 56.777 221.088 56.405 221.088 56.013 221.108 C 55.621 221.147 55.248 221.166 54.856 221.206 C 54.465 221.245 54.092 221.264 53.7 221.323 C 52.936 221.421 52.152 221.5 51.388 221.637 C 51.015 221.695 50.623 221.755 50.251 221.813 C 49.879 221.892 49.507 221.969 49.115 222.048 C 48.369 222.185 47.625 222.381 46.901 222.558 C 46.528 222.655 46.175 222.754 45.823 222.852 C 45.47 222.949 45.117 223.047 44.764 223.165 C 44.059 223.381 43.393 223.596 42.726 223.831 C 42.393 223.949 42.06 224.047 41.746 224.164 C 41.433 224.282 41.1 224.399 40.786 224.517 C 40.473 224.635 40.159 224.753 39.864 224.89 C 39.571 225.008 39.258 225.125 38.983 225.262 C 38.415 225.516 37.847 225.752 37.318 226.007 C 37.063 226.124 36.789 226.261 36.534 226.379 C 36.279 226.497 36.043 226.634 35.789 226.752 C 35.299 226.986 34.867 227.222 34.436 227.438 C 33.594 227.888 32.869 228.299 32.281 228.653 C 31.693 229.005 31.243 229.298 30.948 229.495 C 30.791 229.593 30.674 229.671 30.596 229.73 C 30.517 229.789 30.478 229.808 30.478 229.808 L 30.125 229.319 Z" fill="#FFFFFF"/>
  </g>
  <g transform="matrix(2.09349, 0, 0, 2.09349, -564.408, -437.434)">
    <path d="M 313.369 400.22 L 271.889 401.72 C 271.889 401.72 269.259 399.09 269.639 398.15 C 270.019 397.21 304.369 370.37 305.679 370.56 C 306.989 370.75 309.999 373.94 312.439 372.81 C 314.879 371.68 312.439 365.11 313.189 364.18 C 313.939 363.24 340.779 348.79 342.469 348.04 C 344.159 347.29 345.659 345.6 349.039 346.35 C 352.419 347.1 360.869 348.6 370.059 354.8 C 379.249 361 388.829 368.13 388.079 372.07 C 387.329 376.01 313.369 400.22 313.369 400.22 L 313.369 400.22 Z" fill="#ffe265"/>
    <path d="M 284.649 447.34 C 293.849 446.21 379.629 427.82 383.199 427.26 C 386.769 426.7 389.019 423.32 389.019 419.56 C 389.019 415.8 388.079 372.07 388.079 372.07 C 388.079 372.07 383.949 373.38 379.069 374.51 C 374.189 375.63 334.199 385.39 318.439 388.96 C 302.679 392.53 277.519 399.1 274.699 399.1 C 271.879 399.1 269.629 398.16 269.629 398.16 C 269.629 398.16 270.379 437.2 270.569 440.02 C 270.759 442.84 272.069 446.21 275.259 447.15 C 278.449 448.09 280.529 447.84 284.649 447.34 Z" fill="#feb502"/>
    <path d="M 340.159 357.33 C 340.159 359.73 342.599 361.32 346.639 361.2 C 351.049 361.07 352.269 358.45 352.129 356.77 C 351.989 355.08 349.959 353.6 345.939 353.67 C 342.209 353.74 340.159 355.22 340.159 357.33 Z" fill="#ff8b0d"/>
    <path d="M 295.109 387.25 C 288.609 389.44 289.339 395.13 291.239 396.4 C 293.139 397.67 295.669 397.6 298.629 396.54 C 301.589 395.48 303.469 394.27 303.769 392.29 C 304.049 390.41 301.589 385.06 295.109 387.25 L 295.109 387.25 Z" fill="#ed6b31"/>
    <path d="M 354.169 370.99 C 349.809 371.19 344.989 374.32 343.189 377.33 C 341.289 380.5 341.149 384.23 345.509 386.55 C 349.869 388.87 365.289 382.96 364.519 377.54 C 363.749 372.11 358.749 370.78 354.169 370.99 L 354.169 370.99 Z" fill="#ed6b31"/>
    <path d="M 339.039 414.84 C 339.039 414.84 345.229 410.26 345.229 407.03 C 345.229 403.79 342.559 396.14 331.219 395.56 C 320.589 395.01 314.039 409.5 321.009 416.96 C 327.979 424.42 332.199 421.04 334.809 420.34 C 337.419 419.63 339.039 414.84 339.039 414.84 Z" fill="#ed6b31"/>
    <path d="M 308.419 427.86 C 308.419 427.86 314.569 424.01 309.849 419.79 C 306.529 416.82 302.089 418.16 299.829 420.47 C 296.939 423.43 297.719 428.14 300.389 430.25 C 303.069 432.37 308.419 427.86 308.419 427.86 L 308.419 427.86 Z" fill="#ed6b31"/>
    <path d="M 287.579 410.55 C 287.579 410.55 286.879 408.34 284.369 407.45 C 281.549 406.45 277.339 409.96 279.139 413.71 C 280.759 417.09 284.349 416.1 284.349 416.1 L 287.579 410.55 L 287.579 410.55 Z" fill="#ed6b31"/>
    <path d="M 377.609 413.78 C 378.219 413.12 382.209 410.24 382.209 408.05 C 382.209 405.87 376.199 399.13 368.529 404.2 C 360.859 409.27 364.869 416.94 366.979 418.21 C 369.089 419.48 374.939 416.67 377.609 413.78 L 377.609 413.78 Z" fill="#ed6b31"/>
    <path d="M 296.049 390.7 C 291.779 392.18 290.169 395.2 291.239 396.4 C 292.369 397.67 294.829 398.51 299.119 396.96 C 302.439 395.76 304.119 393.75 303.839 391.96 C 303.639 390.66 299.919 389.36 296.049 390.7 Z" fill="#ff8b0d"/>
    <path d="M 281.809 410.4 C 279.939 412.74 281.459 415.4 283.219 416.03 C 284.979 416.66 288.079 414.76 287.869 411.6 C 287.649 408.43 283.499 408.29 281.809 410.4 L 281.809 410.4 Z" fill="#ff8b0d"/>
    <path d="M 303.559 423.15 C 299.539 426.41 299.429 429.6 300.979 430.68 C 302.059 431.44 306.039 433.02 309.679 430.33 C 312.379 428.34 312.429 424.16 311.579 422.16 C 310.869 420.46 306.939 420.4 303.559 423.15 L 303.559 423.15 Z" fill="#ff8b0d"/>
    <path d="M 327.959 405.38 C 322.579 410.61 321.299 419.1 326.579 421.1 C 331.229 422.86 337.909 421.8 341.849 416.95 C 345.989 411.85 346.429 406.22 343.769 402.9 C 340.589 398.91 332.119 401.35 327.959 405.38 L 327.959 405.38 Z" fill="#ff8b0d"/>
    <path d="M 352.409 376.2 C 345.369 378.59 341.219 383.66 344.809 386.2 C 348.399 388.73 352.129 388.36 356.209 386.97 C 360.839 385.4 364.379 381.76 364.519 378.31 C 364.629 375.48 358.609 374.09 352.409 376.2 L 352.409 376.2 Z" fill="#ff8b0d"/>
    <path d="M 371.209 408.57 C 366.419 412.47 365.019 416.38 366.989 418.21 C 368.959 420.04 373.679 420.88 378.039 417.86 C 382.569 414.72 382.899 411.16 382.399 408.29 C 381.839 405.06 376.129 404.56 371.209 408.57 L 371.209 408.57 Z" fill="#ff8b0d"/>
  </g>
</svg>