<?xml version="1.0" encoding="utf-8"?>
<svg xmlns="http://www.w3.org/2000/svg" viewBox="0 0 500 500">
  <g id="Layer_1" transform="matrix(0.500021, 0, 0, 0.500021, 128.868, 0)">
    <path style="fill:#AF6518;" d="M 372.931 228.676 C 368.125 272.22 376.988 312.182 403.517 338.713 C 466.473 401.666 605.065 365.145 687.668 282.543 C 750.623 219.588 750.622 117.518 687.668 54.562 C 624.711 -8.392 522.644 -8.393 459.686 54.562 C 417.148 97.101 386.83 154.488 376.025 208.748"/>
    <path style="fill:#F6E088;" d="M 367.981 427.859 C 366.23 426.107 364.348 424.57 362.367 423.233 L 428.71 356.889 C 419.409 352.147 410.934 346.127 403.515 338.712 C 396.1 331.295 390.083 322.819 385.338 313.518 L 318.994 379.862 C 317.657 377.883 316.121 375.999 314.368 374.248 C 299.566 359.444 275.564 359.444 260.759 374.248 C 245.956 389.055 245.956 413.056 260.76 427.86 C 275.565 442.664 299.567 442.664 314.369 427.86 C 299.568 442.664 299.567 466.666 314.37 481.471 C 329.174 496.274 353.177 496.274 367.982 481.471 C 382.787 466.666 382.786 442.663 367.981 427.859 Z"/>
    <g transform="matrix(0.97688, 0, 0, 0.97688, 242.244, -0.000242)">
      <path style="fill:#491E17;" d="M461.343,50.479c-67.307-67.304-176.822-67.306-244.131,0 c-43.406,43.406-76.198,103.865-87.721,161.726l14.915,2.971c10.959-55.03,42.195-112.579,83.559-153.943 c61.378-61.375,161.248-61.376,222.623,0c61.376,61.378,61.376,161.246,0,222.621c-40.58,40.58-94.973,70.678-149.231,82.574 c-26.965,5.912-51.924,6.891-74.182,2.911c-11.341-2.029-21.689-5.323-30.995-9.835l-1.846-0.942 c-7.871-4.013-14.995-8.94-21.224-14.675c-0.897-0.827-1.779-1.671-2.642-2.535c-0.01-0.01-0.02-0.02-0.029-0.03 c-0.758-0.76-1.501-1.538-2.234-2.328c-0.142-0.152-0.283-0.304-0.425-0.458c-5.662-6.185-10.541-13.247-14.522-21.053 l-1.433-2.809c-8.801-18.507-14.4-44.294-10.486-79.753l-15.117-1.668c-3.6,32.615,0.319,62.04,11.129,86.065l-58.276,58.275 c-8.749-8.68-20.345-13.457-32.677-13.457c-12.397,0-24.051,4.828-32.817,13.594c-18.095,18.096-18.095,47.537,0,65.633 c8.767,8.765,20.421,13.592,32.816,13.592c3.213,0,6.375-0.324,9.45-0.957c-3.044,14.79,1.16,30.791,12.612,42.243 c8.766,8.766,20.421,13.593,32.817,13.593c12.398,0,24.052-4.827,32.818-13.593c18.05-18.05,18.094-47.391,0.135-65.497 l58.192-58.192c9.781,4.42,20.49,7.683,32.08,9.756c9.824,1.757,20.093,2.635,30.762,2.635c15.649,0,32.156-1.889,49.356-5.66 c57.022-12.502,114.147-44.094,156.729-86.676C528.648,227.302,528.648,117.786,461.343,50.479z M169.371,376.092l-22.529-22.529 l-10.754,10.753l22.53,22.53l-47.548,47.548l7.643,5.159c1.666,1.124,3.221,2.405,4.624,3.809 c12.166,12.166,12.166,31.96,0.002,44.126c-5.895,5.894-13.73,9.139-22.065,9.139s-16.169-3.245-22.063-9.139 c-12.164-12.165-12.164-31.96-0.001-44.127l-10.754-10.752c-5.892,5.894-13.727,9.139-22.061,9.139s-16.169-3.245-22.063-9.138 c-12.164-12.165-12.164-31.96,0-44.126c5.894-5.894,13.73-9.139,22.064-9.139s16.168,3.246,22.064,9.142 c1.401,1.399,2.681,2.954,3.807,4.621l5.16,7.642l67.381-67.38c2.329,3.699,4.858,7.222,7.565,10.565 c0.119,0.148,0.24,0.294,0.36,0.441c0.574,0.702,1.157,1.395,1.747,2.079c0.207,0.239,0.414,0.48,0.622,0.717 c0.545,0.62,1.098,1.233,1.657,1.839c0.213,0.232,0.423,0.465,0.639,0.696c0.761,0.813,1.533,1.616,2.319,2.402 c0.895,0.894,1.813,1.768,2.743,2.631c0.325,0.303,0.655,0.603,0.984,0.903c0.598,0.542,1.205,1.077,1.818,1.606 c0.923,0.801,1.861,1.583,2.811,2.352c0.207,0.166,0.411,0.338,0.619,0.504c3.105,2.476,6.357,4.781,9.746,6.921L169.371,376.092z"/>
      <path style="fill:#491E17;" d="M432.158,265.423c24.772-24.772,38.413-57.757,38.412-92.88 c-0.001-35.122-13.644-68.108-38.418-92.879l-10.752,10.754c21.9,21.9,33.961,51.066,33.962,82.125 c0.001,31.06-12.06,60.226-33.959,82.125L432.158,265.423z"/>
    </g>
  </g>
  <g transform="matrix(1, 0, 0, 1, 66.7022, -2.505)">
    <path d="M -18.807 296.884 L 106.594 296.884 L 106.594 502.505 L -18.807 502.505 L -18.807 296.884 Z" fill="#EBA824"/>
    <path d="M -18.807 485.412 L 106.594 485.412 L 106.594 502.505 L -18.807 502.505 L -18.807 485.412 Z" fill="#EACC53"/>
    <path d="M 4.31 364.475 L 14.888 364.475 L 14.888 490.692 L 4.31 490.692 L 4.31 364.475 Z M 38.912 364.475 L 49.491 364.475 L 49.491 490.692 L 38.912 490.692 L 38.912 364.475 Z M 72.699 364.475 L 83.277 364.475 L 83.277 490.692 L 72.699 490.692 L 72.699 364.475 Z" fill="#EACC53"/>
    <path d="M 137.041 342.084 L 106.612 342.084 L 106.612 351.864 L 125.138 351.864 C 131.852 351.864 137.35 357.362 137.35 364.076 L 137.35 450.392 C 137.35 457.106 131.852 462.604 125.138 462.604 L 106.612 462.604 L 106.612 472.384 L 137.041 472.384 C 143.755 472.384 149.253 466.886 149.253 460.172 L 149.253 354.296 C 149.253 347.582 143.755 342.084 137.041 342.084 Z" fill="#6E4921"/>
    <path d="M -28.297 279.284 C -28.297 279.284 -43.357 304.524 -17.501 312.671 C -10.787 314.104 3.058 312.054 11.205 308.806 C 15.07 307.989 24.632 305.14 27.898 315.32 C 30.548 319.602 41.326 332.013 49.89 317.352 C 52.539 311.038 54.771 303.308 65.967 304.524 C 72.681 305.54 92.549 312.761 106.612 307.88 C 106.666 320.219 106.612 320.945 106.612 320.945 C 106.612 320.945 125.12 318.368 119.313 294.344 C 117.481 288.03 109.533 276.435 96.305 276.634 C 91.007 274.802 86.743 270.937 83.477 268.687 C 79.812 266.237 58.636 254.225 41.743 266.655 C 36.445 264.913 32.181 261.665 20.985 260.141 C 11.713 259.342 -11.15 258.78 -28.297 279.284 Z" fill="#F5ECDA"/>
    <path d="M -12.62 280.899 C -12.62 280.899 -12.601 280.844 -12.547 280.753 C -12.493 280.663 -12.438 280.518 -12.329 280.354 C -12.13 280.009 -11.839 279.538 -11.422 278.975 C -11.005 278.395 -10.479 277.741 -9.807 277.016 C -9.644 276.834 -9.462 276.653 -9.281 276.471 L -8.718 275.909 C -8.319 275.528 -7.902 275.165 -7.448 274.766 C -7.231 274.566 -6.977 274.384 -6.741 274.203 C -6.487 274.022 -6.251 273.822 -5.979 273.622 C -5.725 273.423 -5.452 273.259 -5.18 273.06 C -4.908 272.878 -4.618 272.679 -4.327 272.497 C -3.747 272.134 -3.148 271.772 -2.495 271.445 C -1.86 271.1 -1.188 270.792 -0.517 270.483 C -0.172 270.32 0.173 270.193 0.536 270.048 C 0.898 269.921 1.243 269.757 1.606 269.63 C 2.35 269.395 3.094 269.122 3.856 268.941 C 4.237 268.832 4.636 268.741 5.017 268.651 C 5.417 268.56 5.798 268.487 6.197 268.415 C 6.995 268.251 7.794 268.161 8.61 268.052 C 9.427 267.961 10.243 267.925 11.042 267.889 L 13.165 267.889 L 13.473 267.907 C 15.088 267.997 16.667 268.215 18.154 268.56 C 18.536 268.651 18.898 268.741 19.261 268.832 C 19.443 268.887 19.624 268.923 19.806 268.977 C 19.987 269.032 20.169 269.086 20.332 269.159 C 20.677 269.268 21.021 269.395 21.366 269.503 C 21.529 269.558 21.711 269.612 21.874 269.685 C 22.038 269.739 22.201 269.83 22.364 269.884 C 22.691 270.03 22.999 270.157 23.308 270.302 C 23.616 270.447 23.925 270.556 24.215 270.719 C 24.796 271.046 25.34 271.336 25.866 271.645 C 25.993 271.717 26.12 271.79 26.247 271.88 C 26.374 271.971 26.501 272.044 26.61 272.134 C 26.846 272.298 27.082 272.461 27.3 272.624 C 27.517 272.788 27.735 272.951 27.953 273.096 C 28.062 273.169 28.152 273.241 28.261 273.332 C 28.352 273.423 28.461 273.495 28.552 273.586 C 28.915 273.913 29.277 274.203 29.568 274.512 C 29.713 274.657 29.876 274.802 30.003 274.929 C 30.148 275.056 30.257 275.219 30.384 275.346 C 30.62 275.618 30.838 275.854 31.001 276.072 C 31.183 276.29 31.328 276.471 31.437 276.616 C 31.546 276.761 31.636 276.889 31.691 276.961 C 31.745 277.034 31.781 277.088 31.781 277.088 L 31.527 277.56 C 31.527 277.56 30.874 277.251 29.731 276.707 C 29.441 276.562 29.114 276.435 28.769 276.29 C 28.425 276.145 28.025 275.999 27.626 275.836 C 27.227 275.655 26.773 275.528 26.302 275.364 C 26.066 275.292 25.83 275.201 25.594 275.11 C 25.467 275.074 25.34 275.02 25.231 274.983 L 24.85 274.874 C 24.324 274.729 23.798 274.566 23.235 274.421 C 22.673 274.276 22.074 274.167 21.475 274.022 C 20.259 273.786 18.971 273.568 17.628 273.441 C 16.286 273.296 14.888 273.223 13.491 273.223 L 13.219 273.223 L 12.947 273.241 L 12.421 273.259 C 12.058 273.278 11.713 273.278 11.35 273.296 C 10.987 273.332 10.642 273.35 10.279 273.387 C 9.917 273.423 9.572 273.441 9.209 273.495 C 8.501 273.586 7.775 273.659 7.068 273.786 C 6.723 273.84 6.36 273.895 6.015 273.949 C 5.671 274.022 5.326 274.094 4.963 274.167 C 4.273 274.294 3.584 274.475 2.913 274.639 C 2.568 274.729 2.241 274.82 1.915 274.911 C 1.588 275.001 1.261 275.092 0.935 275.201 C 0.282 275.401 -0.335 275.6 -0.952 275.818 C -1.261 275.927 -1.569 276.018 -1.86 276.126 C -2.15 276.235 -2.458 276.344 -2.749 276.453 C -3.039 276.562 -3.329 276.671 -3.602 276.798 C -3.874 276.907 -4.164 277.016 -4.418 277.143 C -4.944 277.378 -5.47 277.596 -5.96 277.832 C -6.196 277.941 -6.45 278.068 -6.686 278.177 C -6.922 278.286 -7.14 278.413 -7.376 278.522 C -7.829 278.739 -8.229 278.957 -8.628 279.157 C -9.408 279.574 -10.079 279.955 -10.624 280.282 C -11.168 280.608 -11.585 280.88 -11.858 281.062 C -12.003 281.153 -12.112 281.225 -12.184 281.28 C -12.257 281.334 -12.293 281.352 -12.293 281.352 L -12.62 280.899 Z" fill="#FFFFFF"/>
  </g>
</svg>