<?xml version="1.0" encoding="utf-8"?>
<svg xmlns="http://www.w3.org/2000/svg" viewBox="0 0 500 500">
  <g id="Layer_1" transform="matrix(0.499999, 0, 0, 0.499999, -121.127, -0.000003)">
    <path style="fill:#AF6518;" d="M 372.931 228.676 C 368.125 272.22 376.988 312.182 403.517 338.713 C 466.473 401.666 605.065 365.145 687.668 282.543 C 750.623 219.588 750.622 117.518 687.668 54.562 C 624.711 -8.392 522.644 -8.393 459.686 54.562 C 417.148 97.101 386.83 154.488 376.025 208.748"/>
    <path style="fill:#F6E088;" d="M 367.981 427.859 C 366.23 426.107 364.348 424.57 362.367 423.233 L 428.71 356.889 C 419.409 352.147 410.934 346.127 403.515 338.712 C 396.1 331.295 390.083 322.819 385.338 313.518 L 318.994 379.862 C 317.657 377.883 316.121 375.999 314.368 374.248 C 299.566 359.444 275.564 359.444 260.759 374.248 C 245.956 389.055 245.956 413.056 260.76 427.86 C 275.565 442.664 299.567 442.664 314.369 427.86 C 299.568 442.664 299.567 466.666 314.37 481.471 C 329.174 496.274 353.177 496.274 367.982 481.471 C 382.787 466.666 382.786 442.663 367.981 427.859 Z"/>
    <g transform="matrix(0.97688, 0, 0, 0.97688, 242.244, -0.000242)">
      <path style="fill:#491E17;" d="M461.343,50.479c-67.307-67.304-176.822-67.306-244.131,0 c-43.406,43.406-76.198,103.865-87.721,161.726l14.915,2.971c10.959-55.03,42.195-112.579,83.559-153.943 c61.378-61.375,161.248-61.376,222.623,0c61.376,61.378,61.376,161.246,0,222.621c-40.58,40.58-94.973,70.678-149.231,82.574 c-26.965,5.912-51.924,6.891-74.182,2.911c-11.341-2.029-21.689-5.323-30.995-9.835l-1.846-0.942 c-7.871-4.013-14.995-8.94-21.224-14.675c-0.897-0.827-1.779-1.671-2.642-2.535c-0.01-0.01-0.02-0.02-0.029-0.03 c-0.758-0.76-1.501-1.538-2.234-2.328c-0.142-0.152-0.283-0.304-0.425-0.458c-5.662-6.185-10.541-13.247-14.522-21.053 l-1.433-2.809c-8.801-18.507-14.4-44.294-10.486-79.753l-15.117-1.668c-3.6,32.615,0.319,62.04,11.129,86.065l-58.276,58.275 c-8.749-8.68-20.345-13.457-32.677-13.457c-12.397,0-24.051,4.828-32.817,13.594c-18.095,18.096-18.095,47.537,0,65.633 c8.767,8.765,20.421,13.592,32.816,13.592c3.213,0,6.375-0.324,9.45-0.957c-3.044,14.79,1.16,30.791,12.612,42.243 c8.766,8.766,20.421,13.593,32.817,13.593c12.398,0,24.052-4.827,32.818-13.593c18.05-18.05,18.094-47.391,0.135-65.497 l58.192-58.192c9.781,4.42,20.49,7.683,32.08,9.756c9.824,1.757,20.093,2.635,30.762,2.635c15.649,0,32.156-1.889,49.356-5.66 c57.022-12.502,114.147-44.094,156.729-86.676C528.648,227.302,528.648,117.786,461.343,50.479z M169.371,376.092l-22.529-22.529 l-10.754,10.753l22.53,22.53l-47.548,47.548l7.643,5.159c1.666,1.124,3.221,2.405,4.624,3.809 c12.166,12.166,12.166,31.96,0.002,44.126c-5.895,5.894-13.73,9.139-22.065,9.139s-16.169-3.245-22.063-9.139 c-12.164-12.165-12.164-31.96-0.001-44.127l-10.754-10.752c-5.892,5.894-13.727,9.139-22.061,9.139s-16.169-3.245-22.063-9.138 c-12.164-12.165-12.164-31.96,0-44.126c5.894-5.894,13.73-9.139,22.064-9.139s16.168,3.246,22.064,9.142 c1.401,1.399,2.681,2.954,3.807,4.621l5.16,7.642l67.381-67.38c2.329,3.699,4.858,7.222,7.565,10.565 c0.119,0.148,0.24,0.294,0.36,0.441c0.574,0.702,1.157,1.395,1.747,2.079c0.207,0.239,0.414,0.48,0.622,0.717 c0.545,0.62,1.098,1.233,1.657,1.839c0.213,0.232,0.423,0.465,0.639,0.696c0.761,0.813,1.533,1.616,2.319,2.402 c0.895,0.894,1.813,1.768,2.743,2.631c0.325,0.303,0.655,0.603,0.984,0.903c0.598,0.542,1.205,1.077,1.818,1.606 c0.923,0.801,1.861,1.583,2.811,2.352c0.207,0.166,0.411,0.338,0.619,0.504c3.105,2.476,6.357,4.781,9.746,6.921L169.371,376.092z"/>
      <path style="fill:#491E17;" d="M432.158,265.423c24.772-24.772,38.413-57.757,38.412-92.88 c-0.001-35.122-13.644-68.108-38.418-92.879l-10.752,10.754c21.9,21.9,33.961,51.066,33.962,82.125 c0.001,31.06-12.06,60.226-33.959,82.125L432.158,265.423z"/>
    </g>
  </g>
  <g transform="matrix(0.925924, 0, 0, 0.925924, 280.495, -191.286)">
    <path d="M 23.443 254.52 L 158.876 254.52 L 158.876 476.59 L 23.443 476.59 L 23.443 254.52 Z" fill="#EBA824"/>
    <path d="M 23.443 450.193 L 158.876 450.193 L 158.876 468.653 L 23.443 468.653 L 23.443 450.193 Z" fill="#EACC53"/>
    <path d="M 48.409 319.581 L 59.834 319.581 L 59.834 455.895 L 48.409 455.895 L 48.409 319.581 Z M 85.78 319.581 L 97.205 319.581 L 97.205 455.895 L 85.78 455.895 L 85.78 319.581 Z M 122.27 319.581 L 133.694 319.581 L 133.694 455.895 L 122.27 455.895 L 122.27 319.581 Z" fill="#EACC53"/>
    <path d="M 191.759 295.399 L 158.896 295.399 L 158.896 305.961 L 178.904 305.961 C 186.155 305.961 192.093 311.899 192.093 319.15 L 192.093 412.371 C 192.093 419.622 186.155 425.56 178.904 425.56 L 158.896 425.56 L 158.896 436.123 L 191.759 436.123 C 199.01 436.123 204.948 430.185 204.948 422.934 L 204.948 308.588 C 204.948 301.337 199.01 295.399 191.759 295.399 Z" fill="#6E4921"/>
    <path d="M 13.194 227.575 C 13.194 227.575 -3.071 254.834 24.854 263.633 C 32.105 265.18 47.057 262.966 55.856 259.458 C 60.03 258.576 70.357 255.499 73.884 266.494 C 76.746 271.118 88.387 284.522 97.636 268.688 C 100.497 261.869 102.907 253.521 114.999 254.834 C 122.25 255.931 143.708 263.73 158.896 258.458 C 158.954 271.784 158.896 272.569 158.896 272.569 C 158.896 272.569 178.884 269.785 172.613 243.839 C 170.634 237.02 162.05 224.498 147.764 224.713 C 142.042 222.734 137.437 218.56 133.91 216.13 C 129.952 213.484 107.082 200.511 88.837 213.935 C 83.115 212.054 78.51 208.546 66.418 206.9 C 56.405 206.037 31.713 205.43 13.194 227.575 Z" fill="#F5ECDA"/>
    <path d="M 30.125 229.319 C 30.125 229.319 30.146 229.259 30.204 229.161 C 30.262 229.064 30.322 228.907 30.439 228.73 C 30.654 228.358 30.969 227.849 31.419 227.241 C 31.869 226.615 32.437 225.908 33.163 225.125 C 33.339 224.929 33.536 224.733 33.731 224.537 L 34.339 223.93 C 34.77 223.518 35.22 223.126 35.711 222.695 C 35.945 222.479 36.219 222.283 36.474 222.087 C 36.749 221.892 37.004 221.676 37.297 221.46 C 37.572 221.245 37.866 221.068 38.16 220.853 C 38.454 220.656 38.767 220.441 39.081 220.245 C 39.708 219.853 40.355 219.462 41.06 219.109 C 41.746 218.736 42.472 218.403 43.196 218.07 C 43.569 217.894 43.941 217.756 44.334 217.6 C 44.724 217.463 45.097 217.286 45.489 217.148 C 46.293 216.895 47.096 216.6 47.919 216.404 C 48.331 216.287 48.762 216.188 49.173 216.091 C 49.605 215.993 50.016 215.914 50.447 215.836 C 51.309 215.659 52.172 215.562 53.053 215.444 C 53.936 215.346 54.817 215.307 55.68 215.268 L 57.973 215.268 L 58.305 215.288 C 60.05 215.385 61.755 215.62 63.361 215.993 C 63.774 216.091 64.164 216.188 64.557 216.287 C 64.753 216.346 64.949 216.385 65.145 216.443 C 65.341 216.503 65.537 216.561 65.713 216.64 C 66.086 216.757 66.457 216.895 66.83 217.011 C 67.006 217.071 67.203 217.129 67.379 217.208 C 67.556 217.266 67.732 217.364 67.908 217.423 C 68.261 217.58 68.594 217.718 68.927 217.874 C 69.26 218.031 69.594 218.148 69.907 218.324 C 70.534 218.678 71.122 218.991 71.69 219.325 C 71.827 219.402 71.964 219.481 72.101 219.578 C 72.239 219.677 72.376 219.755 72.493 219.853 C 72.748 220.03 73.003 220.206 73.239 220.382 C 73.473 220.559 73.708 220.735 73.944 220.892 C 74.062 220.97 74.159 221.048 74.277 221.147 C 74.375 221.245 74.493 221.323 74.591 221.421 C 74.983 221.774 75.374 222.087 75.688 222.421 C 75.845 222.578 76.021 222.734 76.158 222.871 C 76.314 223.008 76.432 223.184 76.569 223.322 C 76.824 223.615 77.06 223.87 77.236 224.106 C 77.432 224.341 77.589 224.537 77.707 224.693 C 77.824 224.85 77.922 224.988 77.981 225.066 C 78.039 225.145 78.078 225.203 78.078 225.203 L 77.804 225.713 C 77.804 225.713 77.099 225.379 75.864 224.792 C 75.551 224.635 75.198 224.498 74.825 224.341 C 74.454 224.185 74.022 224.027 73.591 223.851 C 73.16 223.655 72.669 223.518 72.161 223.341 C 71.906 223.263 71.651 223.165 71.396 223.067 C 71.259 223.028 71.122 222.97 71.004 222.93 L 70.593 222.812 C 70.025 222.655 69.456 222.479 68.848 222.323 C 68.241 222.166 67.595 222.048 66.948 221.892 C 65.634 221.637 64.243 221.401 62.793 221.264 C 61.344 221.108 59.834 221.029 58.325 221.029 L 58.031 221.029 L 57.737 221.048 L 57.169 221.068 C 56.777 221.088 56.405 221.088 56.013 221.108 C 55.621 221.147 55.248 221.166 54.856 221.206 C 54.465 221.245 54.092 221.264 53.7 221.323 C 52.936 221.421 52.152 221.5 51.388 221.637 C 51.015 221.695 50.623 221.755 50.251 221.813 C 49.879 221.892 49.507 221.969 49.115 222.048 C 48.369 222.185 47.625 222.381 46.901 222.558 C 46.528 222.655 46.175 222.754 45.823 222.852 C 45.47 222.949 45.117 223.047 44.764 223.165 C 44.059 223.381 43.393 223.596 42.726 223.831 C 42.393 223.949 42.06 224.047 41.746 224.164 C 41.433 224.282 41.1 224.399 40.786 224.517 C 40.473 224.635 40.159 224.753 39.864 224.89 C 39.571 225.008 39.258 225.125 38.983 225.262 C 38.415 225.516 37.847 225.752 37.318 226.007 C 37.063 226.124 36.789 226.261 36.534 226.379 C 36.279 226.497 36.043 226.634 35.789 226.752 C 35.299 226.986 34.867 227.222 34.436 227.438 C 33.594 227.888 32.869 228.299 32.281 228.653 C 31.693 229.005 31.243 229.298 30.948 229.495 C 30.791 229.593 30.674 229.671 30.596 229.73 C 30.517 229.789 30.478 229.808 30.478 229.808 L 30.125 229.319 Z" fill="#FFFFFF"/>
  </g>
  <g transform="matrix(1.66666, 0, 0, 1.66666, -322.48, -311.096)">
    <path d="M 339.7 453.043 C 339.7 453.043 330.076 456.065 314.669 452.459 C 299.275 448.852 278.136 435.249 272.553 410.006 C 266.97 384.764 277.042 355.543 305.169 342.026 C 333.296 328.509 358.949 344.786 358.949 344.786 L 371.483 353.789 L 379.529 367.343 L 383.346 380.474 L 382.351 398.405 L 376.159 414.222 L 366.982 425.662 L 350.456 437.524 L 339.7 453.043 Z" fill="#4bddff"/>
    <path d="M 340.247 337.065 C 339.551 337.164 339.949 338.146 340.732 338.345 C 341.516 338.544 347.41 339.527 353.005 342.374 C 358.601 345.222 370.439 354.274 374.816 363.513 C 381.344 377.278 381.655 388.606 377.949 402.807 C 374.99 414.16 362.879 437.388 333.16 436.356 C 303.95 435.348 290.011 405.567 296.179 387.35 C 302.322 369.196 315.39 358.527 333.794 361.287 C 354.759 364.433 361.262 382.202 357.668 394.687 C 354.075 407.171 339.949 418.363 325.985 411.225 C 313.55 404.871 316.236 390.981 319.917 387.313 C 323.858 383.396 330.66 380.947 335.659 386.095 C 340.086 390.646 337.487 395.632 335.348 397.025 C 333.433 398.268 333.01 397.025 333.01 398.43 C 333.01 399.835 334.726 403.429 334.726 403.429 L 341.752 401.551 L 347.211 391.877 L 346.117 375.649 L 324.107 375.177 L 309.434 380.636 L 304.908 403.105 L 318.176 420.899 L 336.281 423.859 L 354.846 417.144 L 365.316 401.078 L 365.937 372.205 L 352.981 359.733 L 332.065 350.208 L 312.555 353.802 L 288.221 374.083 L 284.478 408.726 L 297.733 429.803 L 316.298 443.53 L 348.131 448.84 L 375.288 427.303 L 385.895 407.793 L 387.462 394.525 C 387.462 394.525 387.462 383.595 386.368 377.539 C 385.261 371.484 377.974 359.31 370.949 351.936 C 359.757 340.198 342.113 336.791 340.247 337.065 Z" fill="#fff11b"/>
    <path d="M 386.915 378.385 C 386.455 377.502 385.932 377.403 386.094 378.634 C 386.256 379.865 386.865 392.088 384.602 402.558 C 381.841 415.378 368.089 443.045 334.552 442.299 C 301.003 441.553 287.002 411.548 289.041 393.046 C 290.894 376.234 299.362 362.133 319.73 356.065 C 341.317 349.648 365.49 367.082 363.612 389.191 C 361.759 411.063 341.143 426.806 322.13 415.726 C 301.625 403.789 312.506 376.01 329.752 377.701 C 343.953 379.094 343.219 391.292 342.399 394.426 C 341.018 399.76 336.703 399.959 336.703 399.959 L 345.271 398.79 L 348.019 385.199 L 344.898 373.971 L 330.809 368.487 L 315.353 372.603 L 304 387.064 L 301.886 402.396 L 310.74 417.853 L 319.718 425.214 L 338.171 427.962 L 355.38 420.85 L 366.858 407.383 L 372.466 387.562 L 368.598 371.844 L 361.859 361.374 L 350.133 351.65 L 325.065 344.538 L 301.252 352.148 L 285.671 371.72 L 279.442 400.78 L 285.92 423.225 L 297.646 437.686 L 318.35 448.778 L 344.289 450.021 L 365.241 440.919 C 365.241 440.919 380.237 424.493 382.849 421.148 C 385.46 417.803 389.427 406.201 389.427 395.545 C 389.414 386.244 387.549 379.604 386.915 378.385 Z" fill="#fdb3d1"/>
    <path d="M 381.742 423.548 C 382.165 422.74 383.259 420.961 382.774 420.763 C 382.289 420.551 379.23 425.251 376.271 428.31 C 372.54 432.165 364.246 444.463 340.658 447.497 C 317.069 450.544 299.922 437.139 291.192 424.555 C 284.043 414.247 273.585 384.578 297.522 362.531 C 325.463 336.816 357.469 353.802 365.639 370.949 C 372.341 385.025 369.208 412.817 347.124 422.192 C 321.372 433.123 305.853 410.728 306.002 398.094 C 306.189 382.202 317.579 371.086 329.84 372.342 C 347.932 374.207 346.39 390.434 344.127 394.426 C 341.752 398.616 337.636 400.73 334.03 398.529 C 332.09 397.348 334.503 390.957 330.088 389.85 C 325.674 388.743 321.322 391.168 323.386 398.89 C 325.114 405.356 331.543 406.798 335.087 406.749 C 339.887 406.674 353.503 403.739 352.172 385.436 C 350.804 366.46 326.146 360.081 311.473 372.392 C 296.801 384.702 294.749 409.895 313.836 424.095 C 332.923 438.295 363.475 429.554 372.316 402.571 C 381.158 375.587 365.801 345.52 331.406 342.996 C 297.012 340.472 275.425 371.596 276.818 399.089 C 278.024 423.05 292.386 442.871 316.994 450.755 C 341.603 458.639 358.427 448.305 361.635 446.179 C 367.355 442.386 374.803 433.732 377.825 429.454 C 379.678 426.856 381.332 424.344 381.742 423.548 Z" fill="#ff2d8a"/>
    <path d="M 370.277 432.053 L 362.879 438.88 C 362.879 438.88 404.311 483.098 405.654 484.354 C 406.997 485.609 409.111 487.039 411.038 486.567 C 412.966 486.082 414.109 484.938 414.109 484.938 L 401.414 470.228 L 376.42 438.121 L 370.277 432.053 Z" fill="#f4b043"/>
    <path d="M 372.739 442.61 L 376.432 438.109 C 376.432 438.109 412.903 476.445 413.861 477.216 C 414.818 477.987 416.124 480.374 415.875 482.103 C 415.685 483.341 415.155 484.504 414.346 485.46 L 372.739 442.61 Z" fill="#f5c977"/>
    <path d="M 295.582 352.819 C 286.293 360.666 278.347 373.274 281.68 375.388 C 285.261 377.676 289.166 366.311 299.151 357.743 C 309.248 349.064 321.272 348.243 319.108 343.904 C 317.28 340.26 302.471 347 295.582 352.819 Z" fill="#ffffff"/>
    <path d="M 281.68 378.248 C 278.099 377.39 276.457 383.235 276.097 386.095 C 275.798 388.494 275.861 393.17 278.472 393.456 C 281.68 393.817 282.152 389.178 282.625 386.443 C 283.11 383.707 284.652 378.957 281.68 378.248 Z" fill="#ffffff"/>
  </g>
</svg>