<svg xmlns="http://www.w3.org/2000/svg" width="1080" height="1080" viewBox="0 0 1080 1080" xml:space="preserve"><g transform="translate(540 540)"/><rect style="stroke:none;stroke-width:1;stroke-dasharray:none;stroke-linecap:butt;stroke-dashoffset:0;stroke-linejoin:miter;stroke-miterlimit:4;fill:#3e721d;fill-rule:nonzero;opacity:1" vector-effect="non-scaling-stroke" x="-540" y="-540" rx="0" ry="0" width="1080" height="1080" transform="translate(540 540)"/><path style="stroke:#fff;stroke-width:2;stroke-dasharray:none;stroke-linecap:round;stroke-dashoffset:0;stroke-linejoin:round;stroke-miterlimit:4;fill:none;fill-rule:nonzero;opacity:1" transform="matrix(45 0 0 45 0 -41.85)" d="M12 13v8m0-8.143a8 8 0 0 1 7.919-8q.08.561.081 1.143a8 8 0 0 1-7.919 8A8 8 0 0 1 12 12.857m0 0a8 8 0 0 0-7.919-8A8 8 0 0 0 11.919 14 8 8 0 0 0 12 12.858" stroke-linecap="round"/><g transform="scale(0)"/></svg>